<?xml version="1.0" encoding="UTF-8"?>
<svg width="32" height="32" viewBox="0 0 32 32" xmlns="http://www.w3.org/2000/svg">
    <!-- Градиент для сердца -->
    <defs>
        <linearGradient id="heartGradient" x1="0%" y1="0%" x2="100%" y2="100%">
            <stop offset="0%" style="stop-color:#ff5555"/>
            <stop offset="100%" style="stop-color:#ff0000"/>
        </linearGradient>
    </defs>
    
    <!-- Форма сердца -->
    <path d="M16 27.1L14.9 26C7.4 19.1 2 14.2 2 8.3C2 3.4 5.9 0 10.5 0C13.2 0 15.9 1.3 16 3.8C16.1 1.3 18.8 0 21.5 0C26.1 0 30 3.4 30 8.3C30 14.2 24.6 19.1 17.1 26L16 27.1Z" 
          fill="url(#heartGradient)" 
          stroke="#aa0000" 
          stroke-width="1"/>
    
    <!-- Блик -->
    <path d="M10.5 4C8.5 4 7 5 7 7C7 7.6 7.4 8 8 8C8.6 8 9 7.6 9 7C9 6.4 9.7 6 10.5 6C11.3 6 12 6.4 12 7C12 7.6 12.4 8 13 8C13.6 8 14 7.6 14 7C14 5 12.5 4 10.5 4Z" 
          fill="#ffcccc" 
          opacity="0.6"/>
</svg> 